<svg width="18" height="19" viewBox="0 0 18 19" fill="none" xmlns="http://www.w3.org/2000/svg">
<path fill-rule="evenodd" clip-rule="evenodd" d="M8.53732 -1.82745e-06C7.41457 0.817197 6.52445 1.92189 6.00257 3.26585C4.40322 7.38449 6.86286 12.1819 11.4963 13.9812C13.5872 14.7931 15.7625 14.8526 17.6682 14.2984C16.9452 15.5167 15.9592 16.5619 14.7759 17.352C13.3922 18.2759 11.7898 18.8203 10.1296 18.9305C8.46962 19.0407 6.80981 18.7129 5.31619 17.9801C3.82254 17.2473 2.54743 16.1353 1.61864 14.755C0.689829 13.3746 0.139305 11.7744 0.0231616 10.1147C-0.0929661 8.45505 0.229611 6.79417 0.957034 5.29795C1.68448 3.80178 2.79191 2.52261 4.16883 1.58892C5.4721 0.705259 6.9736 0.15934 8.53732 -1.82745e-06Z" fill="#D9D9D9"/>
</svg>
