<svg width="92" height="74" viewBox="0 0 92 74" fill="none" xmlns="http://www.w3.org/2000/svg">
<g clip-path="url(#clip0_90_6)">
<path d="M9.2 4.625C9.2 3.33867 9.74625 1.6043 10.0912 0.679297C10.235 0.274609 10.6375 0 11.0687 0C11.3419 0 11.615 0.101172 11.8162 0.303516L18.4 6.60508L24.9837 0.303516C25.185 0.115625 25.4437 0 25.7312 0C26.1625 0 26.565 0.260156 26.7087 0.679297C27.0537 1.61875 27.6 3.33867 27.6 4.625C27.6 8.45508 24.4519 10.6953 23.3594 11.3602L34.3131 21.8531C35.1756 22.677 36.3112 23.125 37.49 23.125H73.6C79.3931 23.125 84.8413 25.8711 88.32 30.525L91.08 34.225C92.6037 36.2629 92.1869 39.168 90.16 40.7C88.1331 42.232 85.2438 41.8129 83.72 39.775L80.96 36.075C80.1981 35.0633 79.2637 34.225 78.2 33.618V46.25H27.6L21.7925 32.6207C21.2319 31.291 19.5931 30.7996 18.4 31.609L12.3481 35.6559C11.04 36.5375 9.51625 37 7.935 37H7.6475C3.43563 37 0 33.5457 0 29.2965C0 27.5477 0.589375 25.8566 1.68187 24.4836L12.5925 10.782C11.2269 9.74141 9.2 7.68906 9.2 4.625ZM78.2 50.875V69.375C78.2 71.9332 76.1444 74 73.6 74H69C66.4556 74 64.4 71.9332 64.4 69.375V60.125H41.4V69.375C41.4 71.9332 39.3444 74 36.8 74H32.2C29.6556 74 27.6 71.9332 27.6 69.375V50.875H78.2ZM36.8 40.4688C37.715 40.4688 38.5925 40.1033 39.2395 39.4528C39.8865 38.8023 40.25 37.92 40.25 37C40.25 36.08 39.8865 35.1977 39.2395 34.5472C38.5925 33.8967 37.715 33.5313 36.8 33.5312C35.885 33.5313 35.0075 33.8967 34.3605 34.5472C33.7135 35.1977 33.35 36.08 33.35 37C33.35 37.92 33.7135 38.8023 34.3605 39.4528C35.0075 40.1033 35.885 40.4688 36.8 40.4688ZM72.45 37C72.45 36.08 72.0865 35.1977 71.4395 34.5472C70.7925 33.8967 69.915 33.5313 69 33.5312C68.085 33.5313 67.2075 33.8967 66.5605 34.5472C65.9135 35.1977 65.55 36.08 65.55 37C65.55 37.92 65.9135 38.8023 66.5605 39.4528C67.2075 40.1033 68.085 40.4688 69 40.4688C69.915 40.4688 70.7925 40.1033 71.4395 39.4528C72.0865 38.8023 72.45 37.92 72.45 37ZM52.9 40.4688C53.815 40.4688 54.6925 40.1033 55.3395 39.4528C55.9865 38.8023 56.35 37.92 56.35 37C56.35 36.08 55.9865 35.1977 55.3395 34.5472C54.6925 33.8967 53.815 33.5313 52.9 33.5312C51.985 33.5313 51.1075 33.8967 50.4605 34.5472C49.8135 35.1977 49.45 36.08 49.45 37C49.45 37.92 49.8135 38.8023 50.4605 39.4528C51.1075 40.1033 51.985 40.4688 52.9 40.4688Z" fill="black"/>
</g>
<defs>
<clipPath id="clip0_90_6">
<rect width="92" height="74" fill="white"/>
</clipPath>
</defs>
</svg>
