<svg width="207" height="253" viewBox="0 0 207 253" fill="none" xmlns="http://www.w3.org/2000/svg">
<path d="M169.167 208C168.859 208.307 164.992 210.011 161.78 211.389C160.056 212.128 157.328 213.322 158.167 215C158.667 216 157.667 218 157.667 219.5C157.667 221 156.667 221.5 156.167 223C155.667 224.5 155.167 225 155.167 225.5C155.167 226 153.667 232.5 155.167 232.5C156.667 232.5 157.167 231.5 159.167 231C161.167 230.5 162.167 230 167.167 228C169.167 227 170.667 225.5 172.667 224C174.667 222.5 174.167 223 176.667 221.5C179.167 220 179.167 220 181.167 218C183.167 216 184.167 217 185.167 215.5C186.167 214 186.167 214.5 189.167 211.5C192.167 208.5 190.667 209 191.667 207C192.667 205 192.667 205.5 193.667 203.5C194.667 201.5 194.667 201 196.167 197C197.667 193 196.667 195 197.667 191C198.667 187 197.667 187.5 197.667 185C197.667 182.5 198.667 183 199.667 179.5C200.667 176 198.667 176 199.667 172C200.667 168 199.667 169 200.167 165C200.667 161 199.667 162.5 200.167 159.5C200.667 156.5 200.167 156.5 199.667 155C199.055 153.164 196.68 153 194.746 153H193.667C191.917 153 191.392 153.245 189.863 155.621C188.044 158.446 187.229 161.812 186.167 165C185.167 168 186.667 166.5 186.167 169C185.667 171.5 186.667 171.5 186.167 174.5C185.667 177.5 185.167 176.5 185.167 180.5C185.167 184.5 184.167 182 185.167 185C186.167 188 184.667 187 184.167 190C183.667 193 182.667 192.5 181.167 195C179.667 197.5 180.167 196.5 179.167 198.5C178.167 200.5 176.167 201 174.167 203.5C172.167 206 169.667 207.5 169.167 208Z" fill="#FFCE7A"/>
<path d="M110.5 247C109.344 247.193 106.21 247.47 102.693 247.744C95.6292 248.293 88.0786 244.369 81.5 247C79 248 72 245 71 245C70 245 61.5 231 61.5 230C61.5 229 60 227.5 60 224.5C60 221.5 59.5 221 59.5 218C59.5 215 58.5 214.5 59.5 209C60.5 203.5 60 205 60 202.5C60 200 59.5 194 58.5 194C57.5 194 57 194.5 55 195.5C53 196.5 50 197 46.5 197C43 197 44.5 197.5 42.5 196.5C40.5 195.5 41 193.5 39.5 191C38 188.5 38.5 183.5 38 181C37.9127 180.564 37.9508 180.024 38.0758 179.428C38.9958 175.043 43.597 172.727 48.0535 172.258C49.6732 172.087 51.3059 172.206 52.9109 172.482C57.4958 173.273 63.8296 173.681 64.5 171C65.5 167 66 166.5 67 163.5C68 160.5 72.5 147.5 73 145.5C73.3398 144.141 74.4254 140.52 75.1532 138.133C75.383 137.379 75.6914 136.652 76.0712 135.961L78.2926 131.923C79.8385 129.112 83.2922 128 86.5 128C89.5 128 91.5 128 98 126.5C104.5 125 103.5 126.5 111 126.5H120.5C123.5 126.5 135.5 127 136 128C136.5 129 141.5 136.5 143 139C144.2 141 145.833 146.167 146.5 148.5C149 156.333 154.2 172.4 155 174C156 176 156 177 156 178.5C156 180 158 181 159 185C160 189 159 188.5 159.5 192.5C160 196.5 159.5 195.5 159.5 199.5C159.5 203.5 160.5 202.5 159.5 208C158.5 213.5 159 211.5 159 215C159 218.5 159.5 218 159 220.5C158.5 223 157.5 225.5 156 228.5C154.5 231.5 155.5 231.5 154 233C152.5 234.5 148.5 240.5 146.5 242.5C144.5 244.5 142.5 245 139.5 246C136.5 247 135 247 128.5 246C122 245 113.5 246.5 110.5 247Z" fill="#FFCE7A"/>
<path d="M113.494 158.08L118.386 185.554C118.795 187.847 119 190.171 119 192.5V197L118.5 202.5L118.1 208.494C118.034 209.494 118 210.498 118 211.5C118 212.5 118 220.5 117.5 224.5C117 228.5 116 231 115 233C114 235 111.5 241.5 110.5 242C109.5 242.5 102 246 101 246C94.0401 246 87.0668 246.783 80.8417 243.671L77.5 242C68.282 237.698 62.2228 228.625 61.781 218.463L61.6129 214.596C61.5377 212.868 61.5959 211.136 61.787 209.417L63.5 194L67 177L69.4458 162.325C69.8141 160.116 70.4324 157.955 71.2889 155.885L73.7279 149.991C75.182 146.477 77.9802 143.69 81.5 142.25C81.8322 142.084 82.1828 141.958 82.5447 141.874L85.4863 141.195C87.489 140.733 89.5376 140.5 91.5929 140.5C94.5119 140.5 97.4118 140.971 100.181 141.894L100.5 142C103.465 143.318 106.111 145.259 108.258 147.693L108.75 148.25C111.203 151.03 112.844 154.43 113.494 158.08Z" fill="white"/>
<path d="M47 51.8398C65.0782 51.8398 79 64.7574 79 79.8398C79 94.9222 65.0782 107.84 47 107.84H46.9316L46.8633 107.843C34.8362 108.314 27.0201 104.99 22.1914 100.044C17.3149 95.0492 15 87.9057 15 79.8398C15 64.7574 28.9218 51.8398 47 51.8398Z" fill="#FFCE7A" stroke="black" stroke-width="7"/>
<path d="M32.6455 77.8057C29.7894 40.197 61.7947 1.6708 103.998 3.56738L104.077 3.57129H104.155C141.472 3.57129 173.884 33.1913 170.179 69.6592C167.006 92.0161 158.783 108.021 146.999 118.45C135.207 128.887 119.473 134.071 100.655 134.071C75.7711 134.071 59.6732 129.127 49.417 120.017C39.2039 110.944 34.114 97.1404 32.6455 77.8057Z" fill="#FFCE7A" stroke="black" stroke-width="7"/>
<path d="M36.5005 65.3047C34.9585 78.7937 38 91.3398 38 91.3398L38.0456 91.5907C38.6803 95.0813 39.6824 98.5457 41 101.84L44.5 108.84L46.0657 111.188C48.984 115.566 52.8557 119.226 57.3903 121.893C58.4568 122.52 59.6151 122.977 60.823 123.245L66.8206 124.578C70.5955 125.417 74.4509 125.84 78.3179 125.84H89H96.0471C98.6787 125.84 101.307 125.644 103.909 125.253L108.267 124.6C109.419 124.427 110.553 124.142 111.651 123.75L113.615 123.049C115.867 122.244 118.044 121.243 120.12 120.057C122.699 118.583 125.109 116.832 127.306 114.834L129.5 112.84L133.931 107.67C134.972 106.455 135.847 105.107 136.532 103.661L137.21 102.229C139.06 98.325 140.311 94.1652 140.922 89.8891C141.306 87.1956 141.435 84.4718 141.305 81.7541L141.282 81.2539C141.095 77.3259 140.429 73.4354 139.299 69.6687L138.891 68.3108C138.301 66.3446 137.38 64.4938 136.166 62.8385L133.83 59.6536C132.945 58.4462 131.968 57.3081 130.91 56.2494C127.681 53.0207 123.745 50.5881 119.413 49.1442L114.642 47.5539C111.295 46.4382 107.686 46.3774 104.303 47.3797L100.095 48.6264C97.3784 49.4314 94.7871 50.6116 92.3966 52.1329C91.1339 52.9364 89.9322 53.8319 88.8012 54.8121L83 59.8398L77 54.3398C73.6975 51.6978 69.9179 49.7152 65.8669 48.4999L62.4607 47.478C58.9473 46.424 55.1671 46.7196 51.8603 48.3069L48.2944 50.0185C45.7868 51.2221 43.526 52.8833 41.6282 54.9167C38.9247 57.8133 36.9505 61.3681 36.5005 65.3047Z" fill="#FEFEF5"/>
<circle cx="109.5" cy="87.3398" r="8" fill="black"/>
<circle cx="55.5" cy="87.3398" r="8" fill="black"/>
<circle cx="87.5" cy="98.3398" r="3" fill="black"/>
<circle cx="72.5" cy="98.3398" r="3" fill="black"/>
<path d="M66.5 107.423C68.5339 112.074 73.201 113.923 79.7149 107.423C80.9861 106.34 84.5 116.351 94 107.423" stroke="black" stroke-width="7" stroke-linecap="round"/>
<ellipse cx="173.5" cy="82.8398" rx="22" ry="24.5" fill="#FFCE7A"/>
<path d="M153.5 97.3398C157.918 105.293 167.146 109.264 175.96 107.004L179.396 106.123C180.127 105.936 180.821 105.626 181.448 105.208L184.578 103.121C185.857 102.269 187.063 101.31 188.182 100.256L188.488 99.9689C192.711 95.9941 195.505 90.7373 196.437 85.0132C197.739 77.0138 195.288 68.8601 189.791 62.9047L187.361 60.2724C186.792 59.6558 186.115 59.1475 185.365 58.7722C178.554 55.3667 170.418 55.3507 164.04 59.5115C162.232 60.6908 160.587 61.8611 159.5 62.8398C155.595 66.3545 153.5 73.8398 153.5 73.8398" stroke="black" stroke-width="7" stroke-linecap="round"/>
<path d="M168.5 85.3398L167.701 82.9435C166.936 80.6486 167.176 78.1374 168.362 76.029C169.975 73.1618 173.086 71.4702 176.37 71.6754L179 71.8398" stroke="black" stroke-width="7" stroke-linecap="round"/>
<path d="M46.5 153.5L47.4351 146.954C47.8111 144.323 48.4074 141.719 49.2134 139.186C50.7256 134.434 52.9761 129.933 55.8749 125.875C57.9517 122.968 60.3479 120.302 63.0186 117.928L63.5 117.5L66.5959 115.436C67.5251 114.817 68.5538 114.362 69.6371 114.091L69.7835 114.054C71.2388 113.69 72.7612 113.69 74.2165 114.054L74.9869 114.247C76.9117 114.728 78.5566 115.974 79.5409 117.697C79.8458 118.23 80.0818 118.8 80.2435 119.393L80.3881 119.923C81.1063 122.556 80.8729 125.359 79.729 127.837L78.5 130.5L75 136.5L72 143.5L70.5 149L69.188 152.116C67.6237 155.831 63.6605 157.932 59.7077 157.142C59.2368 157.047 58.7746 156.913 58.3264 156.741L56.0335 155.859C53.6839 154.955 51.2489 154.291 48.7657 153.878L46.5 153.5Z" fill="#FEFEF5"/>
<path d="M161 213L165.547 210.442C167.844 209.15 170.011 207.641 172.018 205.934C176.59 202.049 180.039 197.012 182.01 191.346L183 188.5L183.281 187.264C184.758 180.767 185.667 174.154 186 167.5L186.336 160.115C186.44 157.814 187.515 155.664 189.294 154.199L189.542 153.995C192.638 151.445 197.164 151.664 200 154.5C202.248 157.069 203.432 160.4 203.31 163.812L203 172.5L202 179.5L201 186L200 190L198.5 194.5L197.5 197L195.5 201L193.5 205L191.5 208L190.874 209.002C189.629 210.994 188.161 212.839 186.5 214.5L183.5 217.5L183.036 217.964C180.681 220.319 178.163 222.503 175.5 224.5C171.849 227.156 167.87 229.328 163.662 230.965L161 232L153.5 234.5M70.5 149L69.188 152.116C67.6237 155.831 63.6605 157.932 59.7077 157.142C59.2368 157.047 58.7746 156.913 58.3264 156.741L56.0335 155.859C53.6839 154.955 51.2489 154.291 48.7657 153.878L46.5 153.5L47.4351 146.954C47.8111 144.323 48.4074 141.719 49.2134 139.186C50.7256 134.434 52.9761 129.933 55.8749 125.875C57.9517 122.968 60.3479 120.302 63.0186 117.928L63.5 117.5L66.5959 115.436C67.5251 114.817 68.5538 114.362 69.6371 114.091L69.7835 114.054C71.2388 113.69 72.7612 113.69 74.2165 114.054L74.9869 114.247C76.9117 114.728 78.5566 115.974 79.5409 117.697C79.8458 118.23 80.0818 118.8 80.2435 119.393L80.3881 119.923C81.1063 122.556 80.8729 125.359 79.729 127.837L78.5 130.5L75 136.5L72 143.5L70.5 149Z" stroke="black" stroke-width="7" stroke-linecap="round"/>
<path d="M60.5 193.5L55 195.5L51.9159 196.528C50.0184 197.161 47.9718 197.192 46.056 196.617C44.7017 196.211 43.4525 195.513 42.3957 194.574L42.0137 194.234C40.3695 192.773 39.1579 190.888 38.5109 188.785L38.1534 187.624C37.7202 186.216 37.5 184.751 37.5 183.278C37.5 181.119 37.9313 178.948 39.2137 177.211C40.2331 175.83 41.2533 174.747 41.5 174.5C46.9558 169.044 53.4297 164.159 57.9678 157.919L59 156.5C61 154 64.1 151.4 64.5 151C64.6524 150.848 65.5109 150.715 66.6168 150.562C69.935 150.105 72 147.35 72 144" stroke="black" stroke-width="7" stroke-linecap="round"/>
<path d="M50.3453 211.288L57.4467 210.166C58.0887 210.065 58.731 210.346 59.0915 210.887C59.3517 211.278 59.4346 211.759 59.3316 212.217C59.1206 213.153 58.8009 214.695 58.5 216.5C58 219.5 58.5 219 58.5 223.5C58.5 228 59.5 226.5 60.5 230C61.5 233.5 62 233 63 235C64 237 64 237 66 239C68 241 67.5 240.5 69.5 242C71.5 243.5 71 244 71 245C71 246 69.5 245.5 67 245.5H58.5C54 245.5 56.5 245 51 245.5C45.5 246 46.5 246.5 44 246.5H39C36.5 246.5 36 247.5 32.5 247.5C29 247.5 30 248.5 28 248.5C26 248.5 24.5 249 22.5 248.5C20.5 248 20.5 248 19 247.5C17.5 247 16.5 246.5 14.5 245C12.5 243.5 13 243.5 11.5 241.5C10 239.5 10 239 8.99999 237C7.99998 235 7 233.5 6 231.5C5 229.5 3.99999 228.5 3.49999 226.5C2.99999 224.5 4.49999 222.5 4.49999 221C4.49999 219.5 7.99999 217 8.99999 216.5C9.99999 216 13.5 215.5 14.5 215.5C15.5 215.5 19.5 217 21.5 218C23.5 219 25 221.5 25.5 222.5C25.6062 222.712 25.879 222.859 26.2476 222.957C28.6091 223.582 30.9379 222.062 32.6654 220.335C33.2202 219.78 33.8325 219.286 34.4933 218.863C36.9991 217.259 40.8012 214.849 41.5 214.5C42.165 214.167 45.4098 212.891 47.7304 211.99C48.5746 211.663 49.4509 211.429 50.3453 211.288Z" fill="#FFCE7A"/>
<path d="M78 131.5L75 137.25L72.5 143.5L70.5 149.5L68.5 155.5L66.5 162L65 168L62 184.5L60 197L59.2639 201.6C58.4226 206.859 58 212.175 58 217.5L58.1466 219.991C58.3798 223.956 59.4158 227.832 61.1918 231.384C62.061 233.122 63.1284 234.754 64.3727 236.247L66.1972 238.437C67.0638 239.477 68.0274 240.431 69.075 241.289C71.6557 243.4 74.6956 244.877 77.9506 245.6L78.2078 245.657C80.7172 246.215 83.3039 246.337 85.8547 246.018L86 246" stroke="black" stroke-width="7" stroke-linecap="round"/>
<path d="M58 209.5L48 211L47.7468 211.068C42.9601 212.344 38.4631 214.528 34.5 217.5L28 223.5M28 223.5L30 228L31 230.5L31.5 232M28 223.5L24.5 219L24.2426 218.743C21.5261 216.026 17.8417 214.5 14 214.5H13.8162C11.3536 214.5 8.97225 215.381 7.10251 216.984C6.70143 217.327 6.32735 217.701 5.98356 218.103C4.38092 219.972 3.5 222.354 3.5 224.816V225.5L3.58997 226.31C3.86118 228.751 4.56216 231.124 5.66049 233.321C6.21903 234.438 6.87696 235.503 7.62631 236.502L9.5 239L12.4849 242.648C13.4913 243.878 14.6427 244.982 15.9142 245.936L16.9086 246.681C17.633 247.225 18.4259 247.67 19.2667 248.007C20.0855 248.334 20.943 248.555 21.8181 248.665L23.5402 248.88C26.7742 249.284 30.0556 248.722 32.9707 247.265C34.6447 246.428 36.4488 245.881 38.306 245.649L39.5 245.5H43L52.5 246H57H63H76.5" stroke="black" stroke-width="7" stroke-linecap="round"/>
<path d="M77.5 188.5C77.5 188.623 77.5035 188.768 77.51 188.932C77.6336 192.044 75.2861 195.393 72.5 194C70.5 193 69.5 191 68 189C66.5 187 66.5 186.5 66 185C65.5 183.5 65 182.5 64.5 181C64 179.5 64 179 64.5 178.5C65 178 68.5 179 69 179.5C69.5 180 72.5 181.5 73.5 182.5C74.5 183.5 77.5 187 77.5 188.5Z" fill="#FFCE00"/>
<path d="M36.5 174.243V173.565C36.5 172.199 36.7388 170.843 37.2056 169.56L38.4764 166.065C38.4921 166.022 38.5123 165.98 38.5366 165.941L39.1346 164.985C39.4394 164.497 40.1911 164.831 40.0331 165.384C40.0113 165.46 40.0081 165.54 40.0236 165.618L41.3451 172.225C41.7802 174.401 42.4697 176.518 43.3995 178.532L43.7079 179.2C44.5676 181.063 45.5917 182.845 46.7682 184.526C47.9205 186.172 49.2145 187.715 50.6354 189.135L53.5 192C56.7833 194.955 60.7407 197.06 65.026 198.131L66.5 198.5L72.6869 199.477C74.8417 199.817 77.0489 199.476 79 198.5L75.7989 196.31C71.6461 193.468 68.1372 189.785 65.5 185.5L62 179L60.311 175.622C59.4409 173.882 58.8067 172.033 58.4251 170.125C58.1424 168.712 58 167.274 58 165.832V157.642C58 157.549 58.0218 157.456 58.0637 157.373C58.2641 156.972 57.9726 156.5 57.5243 156.5H57.1689C57.0574 156.5 56.9472 156.477 56.8448 156.433L53.5 155L53.3212 154.928C51.7878 154.315 50.1515 154 48.5 154L47 151.5C45.6667 151 43.8 151 43 151C42 151 36.5 152 35.5 152.5C34.5 153 31 155.5 28.5 158.5C28.0424 159.049 27.4452 160.422 26.7564 162.101C25.023 166.325 24.1332 170.898 24.3865 175.458L24.4651 176.871C24.4883 177.29 24.5441 177.706 24.6319 178.116L25.4232 181.808C25.7597 183.378 27.1471 184.5 28.7527 184.5C29.5581 184.5 30.3374 184.215 30.9522 183.694L32.8683 182.073C35.1716 180.124 36.5 177.26 36.5 174.243Z" fill="#FFCE00"/>
<path d="M71 179L74 182.5L76.5 186L77.9284 188.5C78.3088 189.165 78.6317 189.862 78.8937 190.583L79.8558 193.228C80.273 194.376 80.2899 195.63 79.9039 196.788L79.7236 197.329C79.5766 197.77 79.3288 198.171 79 198.5M79 198.5L75.7989 196.31C71.6461 193.468 68.1372 189.785 65.5 185.5L62 179L60.311 175.622C59.4409 173.882 58.8067 172.033 58.4251 170.125C58.1424 168.712 58 167.274 58 165.832V157.642C58 157.549 58.0218 157.456 58.0637 157.373C58.2641 156.972 57.9726 156.5 57.5243 156.5H57.1689C57.0574 156.5 56.9472 156.477 56.8448 156.433L53.5 155L53.3212 154.928C51.7878 154.315 50.1515 154 48.5 154L47 151.5C45.6667 151 43.8 151 43 151C42 151 36.5 152 35.5 152.5C34.5 153 31 155.5 28.5 158.5C28.0424 159.049 27.4452 160.422 26.7564 162.101C25.023 166.325 24.1332 170.898 24.3865 175.458L24.4651 176.871C24.4883 177.29 24.5441 177.706 24.6319 178.116L25.4232 181.808C25.7597 183.378 27.1471 184.5 28.7527 184.5C29.5581 184.5 30.3374 184.215 30.9522 183.694L32.8683 182.073C35.1716 180.124 36.5 177.26 36.5 174.243V173.565C36.5 172.199 36.7388 170.843 37.2056 169.56L38.4764 166.065C38.4921 166.022 38.5123 165.98 38.5366 165.941L39.1346 164.985C39.4394 164.497 40.1911 164.831 40.0331 165.384C40.0113 165.46 40.0081 165.54 40.0236 165.618L41.3451 172.225C41.7802 174.401 42.4697 176.518 43.3995 178.532L43.7079 179.2C44.5676 181.063 45.5917 182.845 46.7682 184.526C47.9205 186.172 49.2145 187.715 50.6354 189.135L53.5 192C56.7833 194.955 60.7407 197.06 65.026 198.131L66.5 198.5L72.6869 199.477C74.8417 199.817 77.0489 199.476 79 198.5Z" stroke="black" stroke-width="7" stroke-linecap="round"/>
<path d="M106.5 218.5C108.5 216.5 111 215 111.5 214C113.694 209.612 120.67 215.892 120.372 220.79C120.306 221.88 120.188 222.968 120 224C119 229.5 118.5 231 117 239.5C115.5 248 115.5 243.5 112.5 245.5C109.5 247.5 110.5 246 106.5 247.5C102.5 249 103 248.5 98 248.5C93 248.5 93.5 248.5 87.5 247.5C81.5 246.5 84.5 244.5 82.5 242.5C80.5 240.5 74.5 233.5 74 229.5C73.5 225.5 75 224.5 76 221.5C76.7742 219.177 79.1035 217.804 81.4365 217.062C83.379 216.444 85.651 216.038 87.5 216.5C91.5 217.5 91.5 218.5 93.5 218.5C95.5 218.5 100 222 101 221.5C102 221 104.5 220.5 106.5 218.5Z" fill="#FFCE7A"/>
<path d="M111.5 158C113.5 157 114 156.5 114.5 156C116.683 153.817 120.248 153.882 122.67 155.797L136.136 166.445C138.428 168.257 139.307 171.387 138 174C137 176 137 175 135.5 176C134 177 134 177 131.5 178.5C129 180 130 179 127.5 181C125 183 125 182.5 122.5 184C120 185.5 120 185.5 118 186C116 186.5 114.5 187 111.5 187C108.5 187 107 187.5 104.5 187C102 186.5 101 186.5 98 186C95 185.5 94 185.5 92 185.5C90.0001 185.5 89 185 86 184.5C83 184 83 183.5 80.5 182.5C78 181.5 78.5 182 77.5 181.5C76.5 181 72 180 71.5 179C71.0001 178 70 179 65 177C60 175 63 175 61.5 173C60.0001 171 60.5 171.5 59 169.5C57.5001 167.5 59 168 57.5 165.5C56 163 57.5 163 57.5 160C57.5 157 58.5 159 59 156C59.5 153 60 155 61.5 153.5C63 152 62.5 151.5 64 150C65.5 148.5 66 150 67.5 150H71.5C73.5 150 73 149.5 75 150C77 150.5 76.5 150.5 78.5 151.5C80.5 152.5 80 152.5 80.5 153.5C81 154.5 81.5 155 82 156C82.5 157 83 158 84.5 159C86 160 85.5 159.5 87 160C88.5 160.5 89.5 161 92 161.5C94.5 162 95 161.5 98 161.5H102.5C104 161.5 104.5 161 107 160C109.5 159 109.5 159 111.5 158Z" fill="#FFCE7A"/>
<path d="M136.5 126.5L138.681 130.377C143.218 138.444 147.043 146.891 150.111 155.623L152 161L156 176.5L158.5 191.5L159.709 204.797C159.903 206.929 159.933 209.073 159.798 211.21L159.614 214.149C159.21 220.565 157.284 226.793 153.993 232.315L153.325 233.438C152.115 235.468 150.607 237.304 148.85 238.885C144.08 243.178 138.043 245.805 131.649 246.369L127.085 246.772C125.364 246.924 123.634 246.946 121.91 246.838L112.58 246.255C109.882 246.086 107.176 246.407 104.592 247.202L100.667 248.41C93.7128 250.55 86.1724 247.961 82 242L77.5 235.5L76.3756 233.532C74.5302 230.303 74.0036 226.485 74.9057 222.877L75.0563 222.275C75.3488 221.105 75.8852 220.01 76.6303 219.061C79.283 215.685 83.6876 214.207 87.84 215.3L89.2809 215.679C90.0907 215.892 90.8716 216.203 91.6067 216.604L91.8754 216.75C94.5697 218.22 96.7912 220.424 98.2817 223.107L98.5 223.5M103 232.5C102.002 229.839 100.764 227.274 99.3021 224.837L98.5 223.5M98.5 223.5L104 218.5L104.239 218.287C107.042 215.796 110.382 213.987 114 213C116.981 212.006 120.102 211.5 123.243 211.5H126.5" stroke="black" stroke-width="7" stroke-linecap="round"/>
<path d="M118.5 150.5L117.339 152.048C116.119 153.674 114.674 155.119 113.048 156.339C112.018 157.111 110.921 157.79 109.77 158.365L108.948 158.776C107.323 159.588 105.597 160.181 103.816 160.537C102.279 160.844 100.708 160.95 99.1426 160.853L93.5 160.5L89.8696 159.774C88.9606 159.592 88.0799 159.29 87.2507 158.875L86.5 158.5C85.2018 157.851 84.1491 156.798 83.5 155.5L83.3376 155.256C82.1334 153.45 80.4787 151.989 78.537 151.018C77.8471 150.674 77.1268 150.393 76.3852 150.181L74 149.5L72.2471 149.25C71.0882 149.084 69.9118 149.084 68.7529 149.25C67.5902 149.416 66.4572 149.747 65.388 150.233L65.2731 150.285C62.8319 151.395 60.8457 153.309 59.6465 155.707L59.3653 156.269C58.7907 157.419 58.3638 158.636 58.0946 159.892L57.8899 160.847C57.3084 163.561 57.503 166.383 58.4514 168.991L58.5359 169.224C58.8446 170.073 59.234 170.89 59.6987 171.664C61.1867 174.144 63.4887 176.032 66.2123 177.004L69 178L72 179L73.5 179.5L80.5 182L87.5 184L98.5 186.5L104 187H109L116.743 186.032L118.071 185.753C123.427 184.625 128.399 182.126 132.5 178.5L133.04 178.05C134.676 176.687 136.17 175.162 137.5 173.5C139.481 171.189 140.995 168.515 141.958 165.627L142 165.5" stroke="black" stroke-width="7" stroke-linecap="round"/>
<path d="M129.398 91V82C129.398 75.9249 124.473 71 118.398 71H101.198H46.3979C40.3228 71 35.3979 75.9249 35.3979 82V91C35.3979 97.0751 40.3228 102 46.3979 102H60.3544C62.4717 102 64.544 101.389 66.3226 100.24L74.3387 95.0626C78.1889 92.5757 83.1776 92.7369 86.8592 95.4672L92.7499 99.8356C94.6453 101.241 96.9425 102 99.3022 102H118.398C124.473 102 129.398 97.0751 129.398 91Z" fill="#EBA2A2" fill-opacity="0.5" stroke="black" stroke-width="5"/>
</svg>
