<svg width="95" height="76" viewBox="0 0 95 76" fill="none" xmlns="http://www.w3.org/2000/svg">
<path d="M80.75 28.5C80.75 15.3781 70.1219 4.75 57 4.75H23.75C10.6281 4.75 0 15.3781 0 28.5V38H80.75V28.5ZM26.1695 25.2937L23.2305 28.1586L23.9281 32.2109C24.0469 32.9383 23.2898 33.4875 22.6367 33.1461L19 31.2312L15.3633 33.1461C14.725 33.4875 13.9531 32.9383 14.0719 32.2109L14.7695 28.1586L11.8305 25.2937C11.2961 24.7742 11.593 23.8836 12.3203 23.7797L16.3875 23.1859L18.1984 19.5047C18.525 18.8367 19.475 18.8516 19.7867 19.5047L21.5977 23.1859L25.6648 23.7797C26.407 23.8836 26.6891 24.7742 26.1695 25.2937ZM47.5445 25.2937L44.6055 28.1586L45.3031 32.2109C45.4219 32.9383 44.6648 33.4875 44.0117 33.1461L40.375 31.2312L36.7383 33.1461C36.1 33.4875 35.3281 32.9383 35.4469 32.2109L36.1445 28.1586L33.2055 25.2937C32.6711 24.7742 32.968 23.8836 33.6953 23.7797L37.7625 23.1859L39.5734 19.5047C39.9 18.8367 40.85 18.8516 41.1617 19.5047L42.9727 23.1859L47.0398 23.7797C47.782 23.8836 48.0641 24.7742 47.5445 25.2937ZM68.9195 25.2937L65.9805 28.1586L66.6781 32.2109C66.7969 32.9383 66.0398 33.4875 65.3867 33.1461L61.75 31.2312L58.1133 33.1461C57.475 33.4875 56.7031 32.9383 56.8219 32.2109L57.5195 28.1586L54.5805 25.2937C54.0461 24.7742 54.343 23.8836 55.0703 23.7797L59.1375 23.1859L60.9484 19.5047C61.275 18.8367 62.225 18.8516 62.5367 19.5047L64.3477 23.1859L68.4148 23.7797C69.157 23.8836 69.4391 24.7742 68.9195 25.2937ZM92.625 47.5H87.875C86.5687 47.5 85.5 48.5687 85.5 49.875V59.375C85.5 60.6813 84.4313 61.75 83.125 61.75C81.8187 61.75 80.75 60.6813 80.75 59.375V42.75H0V68.875C0 70.1813 1.06875 71.25 2.375 71.25H16.625C17.9313 71.25 19 70.1813 19 68.875V57H47.5V68.875C47.5 70.1813 48.5687 71.25 49.875 71.25H64.125C65.4313 71.25 66.5 70.1813 66.5 68.875V52.25H71.25V58.6773C71.25 64.882 75.7031 70.5672 81.8781 71.1906C88.9734 71.918 95 66.3367 95 59.375V49.875C95 48.5687 93.9313 47.5 92.625 47.5Z" fill="black"/>
</svg>
